PathFileType	4	(X/Y/Z)	7_coords_data.trc
DataRate	CameraRate	NumFrames	NumMarkers	Units	OrigDataRate	OrigDataStartFrame	OrigNumFrames
30.0	30.0	9	21	m	30.0	1	65
Frame#	Time	THUMB_TIP	THUMB_IP	THUMB_MCP	THUMB_CMC	INDEX_TIP	INDEX_DIP	INDEX_PIP	INDEX_MCP	MIDDLE_TIP	MIDDLE_DIP	MIDDLE_PIP	MIDDLE_MCP	RING_TIP	RING_DIP	RING_PIP	RING_MCP	PINKY_TIP	PINKY_DIP	PINKY_PIP	PINKY_MCP	WRIST
X1	Y1	Z1	X2	Y2	Z2	X3	Y3	Z3	X4	Y4	Z4	X5	Y5	Z5	X6	Y6	Z6	X7	Y7	Z7	X8	Y8	Z8	X9	Y9	Z9	X10	Y10	Z10	X11	Y11	Z11	X12	Y12	Z12	X13	Y13	Z13	X14	Y14	Z14	X15	Y15	Z15	X16	Y16	Z16	X17	Y17	Z17	X18	Y18	Z18	X19	Y19	Z19	X20	Y20	Z20	X21	Y21	Z21
0	-2.749317978547796e-18	0.4638579289754643	-0.037093096712068396	-0.17334391343545696	0.4714969325064152	-0.04165486088290993	-0.1521581650959778	0.46409732775230006	-0.03847840697846305	-0.1220919716209834	0.46823617078937796	-0.03356433769219214	-0.07794888720944548	0.5598208780589075	0.030311311491489135	-0.17804952271969066	0.5486628352709322	0.021945769384066782	-0.166494619587658	0.5345757410299327	0.009443930587156757	-0.1498432642211639	0.5118619445106084	-0.009531430187929346	-0.11922210772546527	0.5830174539707715	0.054782160975092586	-0.14181184073497255	0.5690365697065773	0.04822609495213426	-0.13234860273237437	0.5481531425703369	0.033237404328709474	-0.11861429625404807	0.5227963309525171	0.0008684639507645642	-0.10113769119507099	0.5993851064454305	0.043495652129244444	-0.09866989654381564	0.5843340761808001	0.03503643603117379	-0.09348258982651814	0.564395310244344	0.020787002629133244	-0.08905774636578057	0.5348134871023298	-0.005607422098883985	-0.08112232470895397	0.6021864481577002	0.009740047972324528	-0.04118810287536845	0.5868361957293398	0.0035976047366623742	-0.04561982279908716	0.5674972456498343	-0.0031520080037340525	-0.05023065316650188	0.5348452362427307	-0.013228961750479051	-0.06177122229737142	0.4622830810018608	-0.023011742144276925	-0.051989820119430985
1	0.03333333333333339	0.4639454949781091	-0.03714993986823023	-0.17355885226689116	0.47133939605660347	-0.04128383215939113	-0.1521990498013598	0.4641860158712836	-0.038526766853967054	-0.12203205222410818	0.4679818813719302	-0.03402507267985189	-0.07781422601494525	0.5597211196677934	0.029828918579256403	-0.1782661170971121	0.5487312830264416	0.02128742953763818	-0.16667877678329035	0.5345289101250713	0.008863080248336819	-0.15006739569357175	0.5116975184069775	-0.009930729606901556	-0.11942173764320352	0.583143689813712	0.05437819467027283	-0.14220908199661197	0.569184425524049	0.04773976675235514	-0.132771380196388	0.5482117196286589	0.03274143867100521	-0.11918442644693916	0.5227280256064429	0.000692938060528725	-0.10130642687756997	0.5998385756571207	0.04285407797848739	-0.09939070508356573	0.5846435333479898	0.03461813424545357	-0.09426431063424501	0.5647123985972108	0.020517155453956715	-0.08935592559759153	0.5345437675464471	-0.0052514252014618235	-0.08157423005432474	0.6020641776731293	0.01002020981578744	-0.041467888278994836	0.5868527053893281	0.003489320115191652	-0.04582203465662138	0.5677207255335457	-0.003611468965785125	-0.05075743334623284	0.5348749200409769	-0.013546469021881502	-0.061862940377868325	0.462283081001861	-0.023011742144276925	-0.051989820119430985
2	0.06666666666666676	0.4640882394425393	-0.03721096245723232	-0.17370803054237843	0.47127234170680277	-0.0409982101557711	-0.15221278852172382	0.4642825359326589	-0.03855508827169285	-0.1219804586297144	0.46780140148760563	-0.034355945139848965	-0.07770998560124431	0.5596270250492343	0.029546927565494707	-0.178405677196586	0.54876781365799	0.020867961596305884	-0.1667973578666428	0.5344830895353034	0.008491933625551562	-0.1502205541516367	0.511571411288061	-0.010183486510035311	-0.11956244304455499	0.5832195570561628	0.05421104380840536	-0.14239092904890327	0.5692756911115588	0.04748992175555744	-0.13298906110313669	0.5482389203828919	0.03245103420792139	-0.11954675145638827	0.5226694940719983	0.0006134076437582792	-0.10141617248348522	0.6000842972209315	0.04255017345590151	-0.09983726440915008	0.5848052136034465	0.0344244395297878	-0.09478532894124247	0.5649108726177917	0.0203915879182196	-0.08954374030856538	0.5343243657223008	-0.004924454772280429	-0.08190931744728291	0.6019409496147983	0.010284697136213716	-0.04164994346639328	0.5868391843097753	0.0034662102578545406	-0.04594469856553962	0.5678739492996061	-0.00389753322787878	-0.05113190994405292	0.5348912341287847	-0.013730672789307063	-0.061917702326902746	0.4622830810018609	-0.023011742144276925	-0.051989820119430985
3	0.10000000000000014	0.4642795039969856	-0.037284734289414145	-0.1738107754794988	0.4712865223641113	-0.040798489417599115	-0.15221088616260836	0.46438491432620055	-0.038572780904421955	-0.12194152825555293	0.46768535719250215	-0.034578777817153905	-0.07763526440691448	0.5595490735428976	0.029433519735209357	-0.17847915184794644	0.5487850176385984	0.02065214161750928	-0.16685923365360888	0.5344458398216796	0.008299932063836168	-0.15031170418009154	0.5114819882233298	-0.010306767584664422	-0.11965084408192295	0.5832553013053827	0.05424552723036824	-0.14239479673533983	0.5693216345791455	0.04744168175850394	-0.13303741364191357	0.548244413920245	0.03233532030439068	-0.11973485137317363	0.5226209490832352	0.000615592295900691	-0.10147437969761319	0.6001713402832072	0.0425339062065363	-0.1000492873073412	0.5848563586301221	0.03442437417631239	-0.09508070328204365	0.565018820017914	0.020389200944781694	-0.08963405723423723	0.5341543906346685	-0.004628856163020889	-0.08213708108399032	0.6018313280383372	0.0105352115141788	-0.04174437380314122	0.5868086045011982	0.0035187250056623043	-0.045997219274410694	0.5679690908101974	-0.004031162209521044	-0.05137159792915835	0.5348969936866801	-0.013799897040132847	-0.061940025563476886	0.462283081001861	-0.023011742144276925	-0.051989820119430985
4	0.13333333333333353	0.4645123535174239	-0.03737650668012649	-0.1738800118242252	0.47137160265634515	-0.04068104394009764	-0.15219981960303697	0.46449154717162644	-0.03858667938654581	-0.12191618584412323	0.46762469479890323	-0.03471283022824245	-0.07758711323207323	0.5594944221428519	0.029455684971044893	-0.17849661229567199	0.5487928041948839	0.020603554071332186	-0.16687270796751802	0.5344218963957448	0.008255702198861181	-0.15034946990217002	0.5114263019317434	-0.010320422916749172	-0.11969386185182485	0.5832595377990004	0.054445313970229	-0.1422539609455451	0.5693318755942678	0.047559029465744196	-0.13294808585320939	0.5482353498704746	0.032363270019589496	-0.11977861178474547	0.5225822275431715	0.0006845602130383099	-0.10148859863951398	0.6001363341755995	0.04275322749447685	-0.10006619558818475	0.5848246515615223	0.03458400828649277	-0.0951860077785126	0.5650577048146466	0.020487819359966464	-0.08964116755954699	0.5340310168381948	-0.004366190683435578	-0.0822693528593269	0.6017420701105739	0.010773459322058976	-0.0417625544042417	0.5867688285988725	0.003636482515955275	-0.0459893263050426	0.5680160708404771	-0.0040341801175771685	-0.0514945084289572	0.5348943282447638	-0.013772866000060446	-0.06193441339526973	0.4622830810018608	-0.023011742144276925	-0.051989820119430985
5	0.1666666666666669	0.4647797309457492	-0.037489135063331736	-0.17392397996889392	0.4715165596432678	-0.040639364497993435	-0.15218251742358013	0.4646011500571541	-0.03860179547237619	-0.12190306196741096	0.46761068147400875	-0.03477549978577221	-0.07756129630602071	0.5594679744194685	0.02957941374985762	-0.17846760159593494	0.5487993150520719	0.020684816180999155	-0.16684581854037417	0.5344141133093345	0.008327156347197162	-0.1503423629248739	0.5114004443289067	-0.010246268360429633	-0.11969868447907672	0.5832400558316007	0.0547735066704349	-0.14199884630000859	0.5693151868988072	0.04780538881862695	-0.13274988101691676	0.5482173182108521	0.03250392540326452	-0.1197055449213491	0.5225529359055487	0.000804968305399778	-0.10146647913400753	0.6000074442340226	0.04315557343229426	-0.09992751362651109	0.5847309459137452	0.03486809790239065	-0.09513727893374124	0.5650439765638007	0.020665060151940917	-0.08958057708159495	0.5339498426539377	-0.004137269534210453	-0.08231971538789962	0.6016742898127478	0.011000804732404501	-0.04171683086246458	0.5867240563227298	0.0038083864121399857	-0.0459310493309667	0.5680232430363192	-0.0039289898045694605	-0.05151894792595879	0.5348849552075627	-0.013668577447438435	-0.0619053699915868	0.4622830810018609	-0.023011742144276925	-0.051989820119430985
6	0.20000000000000023	0.4650745504112681	-0.037623890078058664	-0.17394772318058938	0.4717099596964488	-0.040665073549530306	-0.15215959460764883	0.4647126688408656	-0.038621961170201224	-0.12189933002705067	0.46763483577861487	-0.03478295670530818	-0.07755281962198646	0.5594732354647673	0.029770020359341176	-0.17840140589727344	0.5488116460385553	0.020857910862106976	-0.16678655268183462	0.5344242107993821	0.0084817216863744	-0.15029893667086802	0.5113998885725297	-0.01010733964601851	-0.11967274724458432	0.5832043554254029	0.05519310335275107	-0.1416580601757309	0.5692800288204156	0.04814408402556736	-0.13246978203874404	0.5481950675831793	0.03272650700928337	-0.11954181705692302	0.5225325734952071	0.0009612623900084882	-0.10141577081229414	0.5998077623368674	0.04368865366152663	-0.09967318873776887	0.5845917186932809	0.03524106880207312	-0.09497102690741843	0.5649906167560174	0.020898774464901182	-0.0894687205736221	0.5339052889249204	-0.00394221771816039	-0.08230294531937976	0.6016253794441084	0.011218228831525345	-0.04162021744607225	0.5866760812823193	0.004022822708692919	-0.0458326532256933	0.5679980000677878	-0.0037383582959341632	-0.05146340544513772	0.5348704097409878	-0.01350620269978764	-0.061857414577412784	0.4622830810018609	-0.023011742144276925	-0.051989820119430985
7	0.23333333333333361	0.46538976458969394	-0.037781133724256954	-0.17395433200321864	0.4719401592639052	-0.04074872780015126	-0.15213036089315746	0.4648251858655835	-0.03865034650762933	-0.12190133594208818	0.46768883592269694	-0.03475067545650612	-0.07755630156344073	0.5595129771841232	0.029992488401995865	-0.17830725359287225	0.5488363998097363	0.02108452793053106	-0.16670298990198879	0.5344533526652492	0.008686600128110511	-0.15022788219231265	0.5114197904875454	-0.009927259638206176	-0.11962371038509412	0.5831599939856653	0.05566735690515778	-0.14125920849463547	0.5692348944922117	0.04853869669344557	-0.13213376013943878	0.5481730366827482	0.03300046979877491	-0.11931302690831369	0.5225206296955827	0.0011378356236398934	-0.10134431854665482	0.5995580451420801	0.04430088303330548	-0.09934378284191325	0.5844211277045638	0.03566760917231715	-0.09472422518657508	0.564908506174223	0.021167241854093355	-0.08932265803895323	0.5338909902782838	-0.003780561034872343	-0.08223452198929326	0.6015906163236661	0.011426443438086187	-0.04148612174304678	0.5866253308619391	0.004267878817276194	-0.04570455553045061	0.5679472805332975	-0.003485252193786925	-0.051346489103794135	0.5348522266520276	-0.013305005534781755	-0.06179509206868228	0.4622830810018608	-0.023011742144276925	-0.051989820119430985
7	0.2666666666666655	0.46571842399833385	-0.03796085482354872	-0.173945940172421	0.472195458341502	-0.040880429162035714	-0.15209361508332653	0.464937839019683	-0.03868985084181986	-0.12190506877181029	0.46776443241959853	-0.034693847640229314	-0.07756623333193402	0.5595897239717351	0.030211768529214367	-0.1781944431734011	0.548880077868406	0.02132635033908592	-0.16660337661643648	0.5345025630027053	0.008908997373904826	-0.15013807234883592	0.5114552284655998	-0.00972974748988975	-0.11955942531144859	0.5831147954255109	0.05616003225291144	-0.14082951308573222	0.5691885182945909	0.048953321088769486	-0.13176738753653316	0.548155730586165	0.03329553375271699	-0.11904476646415818	0.5225166528623986	0.0013191434749286746	-0.1012600516990223	0.5992787761774854	0.04494164146519941	-0.09898052431799997	0.5842326154662423	0.03611302851028109	-0.09443424659400423	0.5648075492384512	0.021449231498354537	-0.08915979513068206	0.5339001416929892	-0.0036513290018698186	-0.08213022505895629	0.601564429375527	0.011626049352270185	-0.041328114736358224	0.5865716831507295	0.004531543222274115	-0.04555724507370529	0.5678779661019278	-0.003192710672693666	-0.05118688659563331	0.5348320716505315	-0.013084276494933156	-0.061722978683854346	0.4622830810018609	-0.023011742144276925	-0.051989820119430985
